<svg xmlns="http://www.w3.org/2000/svg" viewBox="0 0 300 150" width="100%" height="100%">
  <!-- Infosys Springboard Logo -->
  <g>
    <!-- Infosys text -->
    <path d="M30,50 h10 v40 h-10 z" fill="#0082CA"/>
    <path d="M50,50 c0,0 15,0 20,0 c5,0 10,4 10,10 c0,6 -5,10 -10,10 c-5,0 -10,0 -10,0 v20 h-10 z" fill="#0082CA"/>
    <path d="M50,60 h10 c0,0 3,0 3,3 c0,3 -3,3 -3,3 h-10 z" fill="#FFFFFF"/>
    <path d="M80,50 c0,0 15,0 20,0 c5,0 10,4 10,10 c0,6 -5,10 -10,10 c5,0 10,4 10,10 c0,6 -5,10 -10,10 c-5,0 -20,0 -20,0 z" fill="#0082CA"/>
    <path d="M90,60 h10 c0,0 3,0 3,3 c0,3 -3,3 -3,3 h-10 z M90,80 h10 c0,0 3,0 3,3 c0,3 -3,3 -3,3 h-10 z" fill="#FFFFFF"/>
    <path d="M120,50 c0,0 15,0 20,0 c5,0 10,4 10,10 c0,6 -5,10 -10,10 c-5,0 -10,0 -10,0 c0,0 10,0 10,0 c5,0 10,4 10,10 c0,6 -5,10 -10,10 c-5,0 -20,0 -20,0 z" fill="#0082CA"/>
    <path d="M130,60 h10 c0,0 3,0 3,3 c0,3 -3,3 -3,3 h-10 z M130,80 h10 c0,0 3,0 3,3 c0,3 -3,3 -3,3 h-10 z" fill="#FFFFFF"/>
    <path d="M160,50 h10 v30 c0,0 0,5 5,5 c5,0 5,-5 5,-5 v-30 h10 v30 c0,0 0,15 -15,15 c-15,0 -15,-15 -15,-15 z" fill="#0082CA"/>
    <path d="M200,50 c0,0 15,0 20,0 c5,0 10,4 10,10 c0,6 -5,10 -10,10 c-5,0 -10,0 -10,0 v20 h-10 z" fill="#0082CA"/>
    <path d="M210,60 h10 c0,0 3,0 3,3 c0,3 -3,3 -3,3 h-10 z" fill="#FFFFFF"/>
    
    <!-- Springboard text -->
    <path d="M70,100 c0,0 5,-3 10,-3 c5,0 10,3 10,8 c0,5 -5,8 -10,8 c-5,0 -10,-3 -10,-8 z" fill="#FF5722"/>
    <path d="M100,95 c0,0 5,-3 10,-3 c5,0 10,3 10,8 c0,5 -5,8 -10,8 c-5,0 -10,-3 -10,-8 z" fill="#FF5722"/>
    <path d="M130,95 c0,0 5,-3 10,-3 c5,0 5,0 5,0 v5 c0,0 0,0 -5,0 c-5,0 -5,3 -5,8 v8 h-5 z" fill="#FF5722"/>
    <path d="M150,95 h5 v20 h-5 z M150,90 h5 v3 h-5 z" fill="#FF5722"/>
    <path d="M165,95 c0,0 5,-3 10,-3 c5,0 10,3 10,8 c0,5 -5,8 -10,8 c-5,0 -10,-3 -10,-8 z" fill="#FF5722"/>
    <path d="M195,95 c0,0 5,-3 10,-3 c5,0 10,3 10,8 c0,5 -5,8 -10,8 c-5,0 -5,0 -5,0 v8 h-5 z" fill="#FF5722"/>
    <path d="M225,95 c0,0 5,-3 10,-3 c5,0 10,3 10,8 c0,5 -5,8 -10,8 c-5,0 -10,-3 -10,-8 z" fill="#FF5722"/>
    <path d="M255,95 c0,0 5,-3 10,-3 c5,0 5,0 5,0 v5 c0,0 0,0 -5,0 c-5,0 -5,3 -5,8 v8 h-5 z" fill="#FF5722"/>
    <path d="M275,95 h5 v3 h3 v3 h-3 v14 h-5 v-14 h-3 v-3 h3 z" fill="#FF5722"/>
  </g>
</svg> 