<svg xmlns="http://www.w3.org/2000/svg" viewBox="0 0 800 400" width="100%" height="100%">
  <!-- Dark background with diagonal stripes -->
  <rect width="800" height="400" fill="#2a2a2a"/>
  <pattern id="diagonalStripes" patternUnits="userSpaceOnUse" width="20" height="20" patternTransform="rotate(45)">
    <rect width="10" height="20" fill="#333333" />
  </pattern>
  <rect width="800" height="400" fill="url(#diagonalStripes)"/>
  
  <!-- Network icon in the center -->
  <g transform="translate(400, 180)">
    <!-- Network node connections -->
    <line x1="-80" y1="-40" x2="0" y2="0" stroke="#ffcc00" stroke-width="4"/>
    <line x1="80" y1="-40" x2="0" y2="0" stroke="#ffcc00" stroke-width="4"/>
    <line x1="-60" y1="60" x2="0" y2="0" stroke="#ffcc00" stroke-width="4"/>
    <line x1="60" y1="60" x2="0" y2="0" stroke="#ffcc00" stroke-width="4"/>
    
    <!-- Network nodes -->
    <circle cx="-80" cy="-40" r="15" fill="#ffcc00"/>
    <circle cx="80" cy="-40" r="15" fill="#ffcc00"/>
    <circle cx="-60" cy="60" r="15" fill="#ffcc00"/>
    <circle cx="60" cy="60" r="15" fill="#ffcc00"/>
    
    <!-- Central shield node -->
    <circle cx="0" cy="0" r="30" fill="#ffcc00"/>
    <path d="M-15,-5 L0,-20 L15,-5 L15,15 L0,25 L-15,15 Z" fill="#2a2a2a"/>
    <path d="M-10,-5 L0,-15 L10,-5 L10,10 L0,18 L-10,10 Z" fill="#ffcc00"/>
  </g>
  
  <!-- Animated scanning effect -->
  <rect x="150" y="300" width="500" height="10" fill="#ffcc00" opacity="0.7">
    <animate attributeName="y" values="300;320;300" dur="2s" repeatCount="indefinite"/>
  </rect>
  
  <!-- Animated alert effect -->
  <circle cx="400" cy="180" r="100" fill="none" stroke="#ffcc00" stroke-width="2" opacity="0.5">
    <animate attributeName="r" values="100;150;100" dur="3s" repeatCount="indefinite"/>
    <animate attributeName="opacity" values="0.5;0;0.5" dur="3s" repeatCount="indefinite"/>
  </circle>
</svg> 